<mxfile host="drawio-plugin" modified="2021-05-02T20:02:11.967Z" agent="5.0 (Windows NT 6.2; Win64; x64) AppleWebKit/537.36 (KHTML, like Gecko) Chrome/87.0.4280.141 Safari/537.36" version="13.7.9" etag="l5_Om7qPb-eWXEWIUjyU" type="embed"><diagram id="FNPLsW9dklXyZ066ThEx" name="Page-1"><mxGraphModel dx="1610" dy="669" grid="1" gridSize="10" guides="1" tooltips="1" connect="1" arrows="1" fold="1" page="1" pageScale="1" pageWidth="850" pageHeight="1100" math="0" shadow="0"><root><mxCell id="0"/><mxCell id="1" parent="0"/><mxCell id="2" value="" style="rounded=0;whiteSpace=wrap;html=1;" vertex="1" parent="1"><mxGeometry x="185" y="310" width="480" height="480" as="geometry"/></mxCell><mxCell id="3" value="&lt;font style=&quot;font-size: 24px&quot;&gt;Species Editor&lt;/font&gt;" style="text;html=1;strokeColor=none;fillColor=none;align=center;verticalAlign=middle;whiteSpace=wrap;rounded=0;" vertex="1" parent="1"><mxGeometry x="344" y="320" width="162" height="40" as="geometry"/></mxCell><mxCell id="4" value="Welcome to the Stellaris Species Editor!" style="text;html=1;align=center;verticalAlign=middle;resizable=0;points=[];autosize=1;fontSize=16;" vertex="1" parent="1"><mxGeometry x="200" y="380" width="300" height="20" as="geometry"/></mxCell></root></mxGraphModel></diagram></mxfile>